# xmcd
#
# Track frame offsets:
#	150
#	13185
#	27107
#	41236
#	54791
#	67666
#	81273
#	96469
#	109350
#	122499
#	136460
#	148474
#	159455
#	170381
#	184929
#	199348
#	221841
#	237194
#
# Disc length: 3376 seconds
#
# Revision: 0
# Processed by: cddbd v1.5.2PL0 Copyright (c) Steve Scherf et al.
# Submitted via: EasyCDDAExtractor 16.0.6.1
#
DISCID=090d2e12
DTITLE=Συλλογικός δίσκος - Το χρυσό κλαρίνο του Βασίλη Σαλέα
DYEAR=2001
DGENRE=Παραδοσιακή
TTITLE0=Μεϊντανάς Γιώργος - Αγάπη μου ταξείδεψες-Τα πιο καλύτερα παιδιά
TTITLE1=Μεϊντανάς Γιώργος - Μαντήλι καλαματιανό-Μού παρήγγειλε τ' αηδόνι-Αργιτ
TTITLE1=οπούλα
TTITLE2=Μεϊντανάς Γιώργος - Η γυναίκα που μ' αρέσει-Μέσ' στο χωριό-Με μπέρδρψε
TTITLE2=χωριανή
TTITLE3=Μεϊντανάς Γιώργος - Σία κι αράξαμε
TTITLE4=Μεϊντανάς Γιώργος - Στ' Αναπλιού το Παλαμήδι
TTITLE5=Μεϊντανάς Γιώργος - Μπάλλος
TTITLE6=Μεϊντανάς Γιώργος - Τζων Κένεντυ
TTITLE7=Μεϊντανάς Γιώργος - Σαράντα παλληκάρια
TTITLE8=Στάμου Μίλτος - Θα μπω στο περιβόλι σου
TTITLE9=Στάμου Μίλτος - Διαμάντω
TTITLE10=Στάμου Μίλτος - Γιε μ' ένας αητός
TTITLE11=Στάμου Μίλτος - Καραγκούνα
TTITLE12=Στάμου Μίλτος - Απάνω σε μιά λεμονιά
TTITLE13=Στάμου Μίλτος - Πανώρια
TTITLE14=Στάμου Μίλτος - Μιά βλαχοπούλα
TTITLE15=Στάμου Μίλτος - Χαρά που τό 'χουν τα βουνά
TTITLE16=Στάμου Μίλτος - Σωτήρχαινας
TTITLE17=Στάμου Μίλτος - Παιδιά Κοζανίτικα (Μακεδονόπουλα)
EXTD=
EXTT0=
EXTT1=
EXTT2=
EXTT3=
EXTT4=
EXTT5=
EXTT6=
EXTT7=
EXTT8=
EXTT9=
EXTT10=
EXTT11=
EXTT12=
EXTT13=
EXTT14=
EXTT15=
EXTT16=
EXTT17=
PLAYORDER=
